<svg width="157" height="38" viewBox="0 0 157 38" fill="none" xmlns="http://www.w3.org/2000/svg">
<path d="M23.6836 0.5625V29H17.8242L6.39844 9.9375V29H0.539062V0.5625H6.39844L17.8438 19.6445V0.5625H23.6836ZM28.1313 18.6484V18.2383C28.1313 16.6888 28.3526 15.263 28.7953 13.9609C29.238 12.6458 29.8826 11.5065 30.7289 10.543C31.5753 9.57943 32.6169 8.83073 33.8539 8.29688C35.0909 7.75 36.5102 7.47656 38.1117 7.47656C39.7133 7.47656 41.1391 7.75 42.3891 8.29688C43.6391 8.83073 44.6872 9.57943 45.5336 10.543C46.393 11.5065 47.044 12.6458 47.4867 13.9609C47.9294 15.263 48.1508 16.6888 48.1508 18.2383V18.6484C48.1508 20.1849 47.9294 21.6107 47.4867 22.9258C47.044 24.2279 46.393 25.3672 45.5336 26.3438C44.6872 27.3073 43.6456 28.056 42.4086 28.5898C41.1716 29.1237 39.7523 29.3906 38.1508 29.3906C36.5492 29.3906 35.1234 29.1237 33.8734 28.5898C32.6365 28.056 31.5883 27.3073 30.7289 26.3438C29.8826 25.3672 29.238 24.2279 28.7953 22.9258C28.3526 21.6107 28.1313 20.1849 28.1313 18.6484ZM33.7563 18.2383V18.6484C33.7563 19.5339 33.8344 20.3607 33.9906 21.1289C34.1469 21.8971 34.3943 22.5742 34.7328 23.1602C35.0844 23.7331 35.5401 24.1823 36.1 24.5078C36.6599 24.8333 37.3435 24.9961 38.1508 24.9961C38.932 24.9961 39.6026 24.8333 40.1625 24.5078C40.7224 24.1823 41.1716 23.7331 41.5102 23.1602C41.8487 22.5742 42.0961 21.8971 42.2523 21.1289C42.4216 20.3607 42.5063 19.5339 42.5063 18.6484V18.2383C42.5063 17.3789 42.4216 16.5716 42.2523 15.8164C42.0961 15.0482 41.8422 14.3711 41.4906 13.7852C41.1521 13.1862 40.7029 12.7174 40.143 12.3789C39.5831 12.0404 38.906 11.8711 38.1117 11.8711C37.3174 11.8711 36.6404 12.0404 36.0805 12.3789C35.5336 12.7174 35.0844 13.1862 34.7328 13.7852C34.3943 14.3711 34.1469 15.0482 33.9906 15.8164C33.8344 16.5716 33.7563 17.3789 33.7563 18.2383ZM62.5594 7.86719V11.8516H50.2547V7.86719H62.5594ZM53.3016 2.65234H58.9266V22.6328C58.9266 23.2448 59.0047 23.7135 59.1609 24.0391C59.3302 24.3646 59.5776 24.5924 59.9031 24.7227C60.2286 24.8398 60.6388 24.8984 61.1336 24.8984C61.4852 24.8984 61.7977 24.8854 62.0711 24.8594C62.3576 24.8203 62.5984 24.7812 62.7938 24.7422L62.8133 28.8828C62.3315 29.0391 61.8107 29.1628 61.2508 29.2539C60.6909 29.3451 60.0724 29.3906 59.3953 29.3906C58.1583 29.3906 57.0776 29.1888 56.1531 28.7852C55.2417 28.3685 54.5385 27.7044 54.0438 26.793C53.549 25.8815 53.3016 24.6836 53.3016 23.1992V2.65234ZM76.0891 29.3906C74.4484 29.3906 72.9771 29.1302 71.675 28.6094C70.3729 28.0755 69.2661 27.3398 68.3547 26.4023C67.4563 25.4648 66.7661 24.3776 66.2844 23.1406C65.8026 21.8906 65.5617 20.5625 65.5617 19.1562V18.375C65.5617 16.7734 65.7896 15.3086 66.2453 13.9805C66.701 12.6523 67.3521 11.5 68.1984 10.5234C69.0578 9.54688 70.0995 8.79818 71.3234 8.27734C72.5474 7.74349 73.9276 7.47656 75.4641 7.47656C76.9615 7.47656 78.2896 7.72396 79.4484 8.21875C80.6073 8.71354 81.5773 9.41667 82.3586 10.3281C83.1529 11.2396 83.7518 12.3333 84.1555 13.6094C84.5591 14.8724 84.7609 16.2786 84.7609 17.8281V20.1719H67.9641V16.4219H79.2336V15.9922C79.2336 15.2109 79.0904 14.5143 78.8039 13.9023C78.5305 13.2773 78.1138 12.7826 77.5539 12.418C76.994 12.0534 76.2779 11.8711 75.4055 11.8711C74.6633 11.8711 74.0253 12.0339 73.4914 12.3594C72.9576 12.6849 72.5214 13.1406 72.1828 13.7266C71.8573 14.3125 71.6099 15.0026 71.4406 15.7969C71.2844 16.5781 71.2063 17.4375 71.2063 18.375V19.1562C71.2063 20.0026 71.3234 20.7839 71.5578 21.5C71.8052 22.2161 72.1503 22.8346 72.593 23.3555C73.0487 23.8763 73.5956 24.2799 74.2336 24.5664C74.8846 24.8529 75.6203 24.9961 76.4406 24.9961C77.4563 24.9961 78.4003 24.8008 79.2727 24.4102C80.1581 24.0065 80.9198 23.401 81.5578 22.5938L84.2922 25.5625C83.8495 26.2005 83.244 26.8125 82.4758 27.3984C81.7206 27.9844 80.8091 28.4661 79.7414 28.8438C78.6737 29.2083 77.4563 29.3906 76.0891 29.3906ZM105.4 19.5664H111.24C111.123 21.4805 110.595 23.1797 109.658 24.6641C108.733 26.1484 107.438 27.3073 105.771 28.1406C104.117 28.974 102.125 29.3906 99.7945 29.3906C97.9716 29.3906 96.3375 29.0781 94.8922 28.4531C93.4469 27.8151 92.2099 26.9036 91.1813 25.7188C90.1656 24.5339 89.3909 23.1016 88.857 21.4219C88.3232 19.7422 88.0563 17.8607 88.0563 15.7773V13.8047C88.0563 11.7214 88.3297 9.83984 88.8766 8.16016C89.4365 6.46745 90.2307 5.02865 91.2594 3.84375C92.301 2.65885 93.5445 1.7474 94.9898 1.10938C96.4352 0.471354 98.0497 0.152344 99.8336 0.152344C102.203 0.152344 104.202 0.582031 105.83 1.44141C107.47 2.30078 108.74 3.48568 109.638 4.99609C110.55 6.50651 111.097 8.22526 111.279 10.1523H105.42C105.354 9.00651 105.127 8.03646 104.736 7.24219C104.345 6.4349 103.753 5.82943 102.959 5.42578C102.177 5.00911 101.136 4.80078 99.8336 4.80078C98.857 4.80078 98.0042 4.98307 97.275 5.34766C96.5458 5.71224 95.9339 6.26562 95.4391 7.00781C94.9443 7.75 94.5732 8.6875 94.3258 9.82031C94.0914 10.9401 93.9742 12.2552 93.9742 13.7656V15.7773C93.9742 17.2487 94.0849 18.5443 94.3063 19.6641C94.5276 20.7708 94.8661 21.7083 95.3219 22.4766C95.7906 23.2318 96.3896 23.8047 97.1188 24.1953C97.8609 24.5729 98.7529 24.7617 99.7945 24.7617C101.018 24.7617 102.028 24.5664 102.822 24.1758C103.616 23.7852 104.222 23.2057 104.638 22.4375C105.068 21.6693 105.322 20.7122 105.4 19.5664ZM126.742 24.2344V14.8203C126.742 14.1432 126.632 13.5638 126.41 13.082C126.189 12.5872 125.844 12.2031 125.375 11.9297C124.919 11.6562 124.327 11.5195 123.598 11.5195C122.973 11.5195 122.432 11.6302 121.977 11.8516C121.521 12.0599 121.169 12.3659 120.922 12.7695C120.674 13.1602 120.551 13.6224 120.551 14.1562H114.926C114.926 13.2578 115.134 12.4049 115.551 11.5977C115.967 10.7904 116.573 10.0807 117.367 9.46875C118.161 8.84375 119.105 8.35547 120.199 8.00391C121.306 7.65234 122.543 7.47656 123.91 7.47656C125.551 7.47656 127.009 7.75 128.285 8.29688C129.561 8.84375 130.564 9.66406 131.293 10.7578C132.035 11.8516 132.406 13.2188 132.406 14.8594V23.9023C132.406 25.0612 132.478 26.0117 132.621 26.7539C132.764 27.4831 132.973 28.1211 133.246 28.668V29H127.562C127.289 28.4271 127.081 27.7109 126.938 26.8516C126.807 25.9792 126.742 25.1068 126.742 24.2344ZM127.484 16.1289L127.523 19.3125H124.379C123.637 19.3125 122.992 19.3971 122.445 19.5664C121.898 19.7357 121.449 19.9766 121.098 20.2891C120.746 20.5885 120.486 20.9401 120.316 21.3438C120.16 21.7474 120.082 22.1901 120.082 22.6719C120.082 23.1536 120.193 23.5898 120.414 23.9805C120.635 24.3581 120.954 24.6576 121.371 24.8789C121.788 25.0872 122.276 25.1914 122.836 25.1914C123.682 25.1914 124.418 25.0221 125.043 24.6836C125.668 24.3451 126.15 23.9284 126.488 23.4336C126.84 22.9388 127.022 22.4701 127.035 22.0273L128.52 24.4102C128.311 24.944 128.025 25.4974 127.66 26.0703C127.309 26.6432 126.859 27.1836 126.312 27.6914C125.766 28.1862 125.108 28.5964 124.34 28.9219C123.572 29.2344 122.66 29.3906 121.605 29.3906C120.264 29.3906 119.047 29.1237 117.953 28.5898C116.872 28.043 116.013 27.2943 115.375 26.3438C114.75 25.3802 114.438 24.2865 114.438 23.0625C114.438 21.9557 114.646 20.9727 115.062 20.1133C115.479 19.2539 116.091 18.5312 116.898 17.9453C117.719 17.3464 118.741 16.8971 119.965 16.5977C121.189 16.2852 122.608 16.1289 124.223 16.1289H127.484ZM142.967 11.9297V37.125H137.342V7.86719H142.557L142.967 11.9297ZM156.346 18.1992V18.6094C156.346 20.1458 156.164 21.5716 155.799 22.8867C155.448 24.2018 154.927 25.3477 154.237 26.3242C153.547 27.2878 152.687 28.043 151.659 28.5898C150.643 29.1237 149.471 29.3906 148.143 29.3906C146.854 29.3906 145.734 29.1302 144.784 28.6094C143.833 28.0885 143.032 27.3594 142.381 26.4219C141.743 25.4714 141.229 24.3711 140.838 23.1211C140.448 21.8711 140.148 20.5299 139.94 19.0977V18.0234C140.148 16.487 140.448 15.0807 140.838 13.8047C141.229 12.5156 141.743 11.4023 142.381 10.4648C143.032 9.51432 143.827 8.77865 144.764 8.25781C145.715 7.73698 146.828 7.47656 148.104 7.47656C149.445 7.47656 150.623 7.73047 151.639 8.23828C152.668 8.74609 153.527 9.47526 154.217 10.4258C154.92 11.3763 155.448 12.5091 155.799 13.8242C156.164 15.1393 156.346 16.5977 156.346 18.1992ZM150.702 18.6094V18.1992C150.702 17.3008 150.623 16.474 150.467 15.7188C150.324 14.9505 150.09 14.2799 149.764 13.707C149.452 13.1341 149.035 12.6914 148.514 12.3789C148.006 12.0534 147.388 11.8906 146.659 11.8906C145.89 11.8906 145.233 12.0143 144.686 12.2617C144.152 12.5091 143.716 12.8672 143.377 13.3359C143.039 13.8047 142.785 14.3646 142.616 15.0156C142.446 15.6667 142.342 16.4023 142.303 17.2227V19.9375C142.368 20.901 142.551 21.7669 142.85 22.5352C143.149 23.2904 143.612 23.8893 144.237 24.332C144.862 24.7747 145.682 24.9961 146.698 24.9961C147.44 24.9961 148.065 24.8333 148.573 24.5078C149.08 24.1693 149.491 23.707 149.803 23.1211C150.129 22.5352 150.357 21.8581 150.487 21.0898C150.63 20.3216 150.702 19.4948 150.702 18.6094Z" fill="black"/>
</svg>
